# xmcd
#
# Track frame offsets: 
#        150
#        12772
#        22610
#        35813
#        49141
#        61132
#        74355
#        88247
#        99171
#        112561
#        124142
#        135919
#        148574
#        161344
#        172678
#
# Disc length: 2468 seconds
#
# Revision: 0
# Processed by: cddbd v1.5.2PL0 Copyright (c) Steve Scherf et al.
# Submitted via: ExactAudioCopy v1.0b3
#
DISCID=ad09a20f
DTITLE=Bob Wills and His Texas Playboys - Plain Country Boys
DYEAR=2005
DGENRE=Country
TTITLE0=Just a Plain Old Country Boy
TTITLE1=Sweet Jennie Lee
TTITLE2=Rock a Bye Baby Blues
TTITLE3=Milk Cow Blues
TTITLE4=Cotton Eyed Joe
TTITLE5=Corrina Corrina
TTITLE6=Red Hot Gal of Mine
TTITLE7=Blue Yodel No. 1
TTITLE8=Dusty Skies
TTITLE9=The Waltz You Saved for Me
TTITLE10=San Antonio Rose
TTITLE11=Steel Guitar Rag
TTITLE12=Ain't Got Nobody
TTITLE13=My Lifes Been a Pleasure
TTITLE14=Playboy Stomp
EXTD=
EXTT0=
EXTT1=
EXTT2=
EXTT3=
EXTT4=
EXTT5=
EXTT6=
EXTT7=
EXTT8=
EXTT9=
EXTT10=
EXTT11=
EXTT12=
EXTT13=
EXTT14=
PLAYORDER=
